<svg width="112" height="37" viewBox="0 0 112 37" fill="none" xmlns="http://www.w3.org/2000/svg">
<rect x="0.5" width="111" height="37" rx="5.55" fill="#0A0D14"/>
<path d="M23.3517 19.2048C23.3629 18.3539 23.5944 17.5196 24.0247 16.7795C24.4549 16.0394 25.0699 15.4176 25.8125 14.9719C25.3407 14.3142 24.7184 13.7729 23.995 13.391C23.2715 13.0092 22.4668 12.7973 21.6448 12.7722C19.8913 12.5925 18.1914 13.7966 17.2978 13.7966C16.387 13.7966 15.0112 12.79 13.5297 12.8198C12.5715 12.85 11.6376 13.1221 10.819 13.6094C10.0005 14.0968 9.32521 14.7829 8.859 15.6008C6.83953 19.0144 8.34588 24.0313 10.2804 26.7906C11.2483 28.1417 12.3795 29.651 13.8596 29.5975C15.308 29.5388 15.849 28.6958 17.5973 28.6958C19.3294 28.6958 19.8369 29.5975 21.3471 29.5635C22.9013 29.5388 23.8805 28.2063 24.8145 26.8424C25.5099 25.8796 26.045 24.8156 26.4 23.6896C25.4971 23.3168 24.7265 22.6927 24.1844 21.8951C23.6424 21.0976 23.3527 20.1619 23.3517 19.2048Z" fill="white"/>
<path d="M20.4992 10.959C21.3467 9.96581 21.7642 8.68924 21.6631 7.40039C20.3684 7.53315 19.1725 8.13724 18.3136 9.09231C17.8937 9.55889 17.5721 10.1017 17.3672 10.6897C17.1622 11.2777 17.078 11.8994 17.1194 12.5192C17.7669 12.5257 18.4075 12.3886 18.993 12.1184C19.5784 11.8481 20.0935 11.4517 20.4992 10.959Z" fill="white"/>
<path d="M37.3975 7.40125H39.1568C40.6771 7.40125 41.4167 8.3052 41.4167 9.94502C41.4167 11.5848 40.6696 12.5 39.1568 12.5H37.3975V7.40125ZM38.2454 8.1147V11.7865H39.0634C40.072 11.7865 40.5464 11.1777 40.5464 9.95623C40.5464 8.72729 40.0682 8.1147 39.0634 8.1147H38.2454ZM44.0987 8.4845C45.1296 8.4845 45.8506 9.15312 45.8506 10.2625V10.7743C45.8506 11.921 45.1296 12.5672 44.0987 12.5672C43.0528 12.5672 42.3393 11.9285 42.3393 10.778V10.2663C42.3393 9.18674 43.064 8.4845 44.0987 8.4845ZM44.1024 9.15312C43.5122 9.15312 43.1761 9.64619 43.1761 10.3073V10.7481C43.1761 11.4093 43.4898 11.8986 44.1024 11.8986C44.7075 11.8986 45.0176 11.413 45.0176 10.7481V10.3073C45.0176 9.64619 44.6926 9.15312 44.1024 9.15312ZM51.9392 8.55173L50.9008 12.5H50.0566L49.2311 9.58643H49.2086L48.3981 12.5H47.5501L46.4669 8.55173H47.3596L47.9947 11.5624H48.032L48.8276 8.55173H49.6083L50.4264 11.5624H50.4637L51.1099 8.55173H51.9392ZM52.761 12.5V8.55173H53.5753V9.26145H53.6164C53.7172 8.95142 54.0048 8.49197 54.8042 8.49197C55.5998 8.49197 56.134 8.93274 56.134 9.83296V12.5H55.3047V10.0758C55.3047 9.47437 54.991 9.19795 54.524 9.19795C53.9115 9.19795 53.5902 9.6686 53.5902 10.3073V12.5H52.761ZM57.3891 12.5V7.1323H58.2183V12.5H57.3891ZM61.0646 8.4845C62.0956 8.4845 62.8165 9.15312 62.8165 10.2625V10.7743C62.8165 11.921 62.0956 12.5672 61.0646 12.5672C60.0188 12.5672 59.3053 11.9285 59.3053 10.778V10.2663C59.3053 9.18674 60.03 8.4845 61.0646 8.4845ZM61.0684 9.15312C60.4782 9.15312 60.142 9.64619 60.142 10.3073V10.7481C60.142 11.4093 60.4558 11.8986 61.0684 11.8986C61.6735 11.8986 61.9835 11.413 61.9835 10.7481V10.3073C61.9835 9.64619 61.6586 9.15312 61.0684 9.15312ZM64.9644 12.5598C64.1986 12.5598 63.6719 12.0891 63.6719 11.3532C63.6719 10.6547 64.1575 10.1841 65.0689 10.1841H66.0663V9.81428C66.0663 9.3623 65.7787 9.14939 65.323 9.14939C64.8747 9.14939 64.673 9.33616 64.6095 9.59763H63.8213C63.8699 8.93647 64.3667 8.49197 65.3491 8.49197C66.1933 8.49197 66.8918 8.84309 66.8918 9.82549V12.5H66.1036V11.9883H66.0663C65.8907 12.2908 65.5471 12.5598 64.9644 12.5598ZM65.2221 11.9173C65.6927 11.9173 66.0663 11.596 66.0663 11.1665V10.7406H65.1997C64.7178 10.7406 64.5049 10.9834 64.5049 11.3122C64.5049 11.723 64.8486 11.9173 65.2221 11.9173ZM69.4468 8.49944C70.0033 8.49944 70.4292 8.74597 70.5823 9.14565H70.6234V7.1323H71.4527V12.5H70.6458V11.8687H70.6047C70.4852 12.2684 70.0108 12.5523 69.4356 12.5523C68.5279 12.5523 67.9377 11.9061 67.9377 10.8639V10.1878C67.9377 9.14565 68.5391 8.49944 69.4468 8.49944ZM69.6784 9.17927C69.1255 9.17927 68.7819 9.59016 68.7819 10.3073V10.7406C68.7819 11.4616 69.1293 11.8725 69.697 11.8725C70.2574 11.8725 70.6234 11.4653 70.6234 10.7929V10.1953C70.6234 9.58643 70.2237 9.17927 69.6784 9.17927ZM76.0061 8.4845C77.037 8.4845 77.7579 9.15312 77.7579 10.2625V10.7743C77.7579 11.921 77.037 12.5672 76.0061 12.5672C74.9602 12.5672 74.2467 11.9285 74.2467 10.778V10.2663C74.2467 9.18674 74.9714 8.4845 76.0061 8.4845ZM76.0098 9.15312C75.4196 9.15312 75.0834 9.64619 75.0834 10.3073V10.7481C75.0834 11.4093 75.3972 11.8986 76.0098 11.8986C76.6149 11.8986 76.925 11.413 76.925 10.7481V10.3073C76.925 9.64619 76.6 9.15312 76.0098 9.15312ZM78.8262 12.5V8.55173H79.6406V9.26145H79.6816C79.7825 8.95142 80.0701 8.49197 80.8695 8.49197C81.6651 8.49197 82.1993 8.93274 82.1993 9.83296V12.5H81.37V10.0758C81.37 9.47437 81.0563 9.19795 80.5893 9.19795C79.9767 9.19795 79.6555 9.6686 79.6555 10.3073V12.5H78.8262ZM85.4079 8.57788V7.59175H86.2185V8.57788H87.1038V9.22783H86.2185V11.3234C86.2185 11.7529 86.3791 11.8725 86.8236 11.8725C86.9357 11.8725 87.0851 11.865 87.1486 11.8575V12.4925C87.0814 12.5037 86.805 12.5261 86.6182 12.5261C85.6582 12.5261 85.3967 12.1825 85.3967 11.3906V9.22783H84.7953V8.57788H85.4079ZM88.1497 12.5V7.1323H88.9752V9.26145H89.0163C89.1022 8.9813 89.4234 8.49197 90.2153 8.49197C90.9848 8.49197 91.5339 8.93647 91.5339 9.83669V12.5H90.7084V10.0795C90.7084 9.4781 90.376 9.19795 89.9053 9.19795C89.3114 9.19795 88.9752 9.66487 88.9752 10.3073V12.5H88.1497ZM94.3167 12.5672C93.241 12.5672 92.5723 11.9061 92.5723 10.7929V10.2588C92.5723 9.13818 93.3045 8.4845 94.2682 8.4845C95.2581 8.4845 95.9566 9.1718 95.9566 10.2588V10.722H93.3941V10.9162C93.3941 11.484 93.7303 11.9023 94.313 11.9023C94.7463 11.9023 95.0451 11.6969 95.1012 11.4504H95.9117C95.8632 11.9061 95.3813 12.5672 94.3167 12.5672ZM93.3941 10.1803H95.146V10.1281C95.146 9.53413 94.7986 9.13818 94.2719 9.13818C93.7452 9.13818 93.3941 9.53413 93.3941 10.1281V10.1803Z" fill="white"/>
<path d="M38.6002 27.5H36.8745L40.3857 17.3025H42.2833L45.7871 27.5H43.9941L43.0901 24.6761H39.5117L38.6002 27.5ZM41.342 19.0656H41.2748L39.8927 23.3762H42.7091L41.342 19.0656ZM50.5498 27.6121C49.5263 27.6121 48.7494 27.1265 48.331 26.4018H48.2713V30.1222H46.6128V19.6035H48.2264V20.7614H48.2862C48.7195 20.0069 49.5263 19.4989 50.5872 19.4989C52.3577 19.4989 53.6203 20.8361 53.6203 23.1969V23.8991C53.6203 26.2449 52.3727 27.6121 50.5498 27.6121ZM50.1688 26.2449C51.2222 26.2449 51.9394 25.4007 51.9394 23.8095V23.2566C51.9394 21.7251 51.267 20.8511 50.1389 20.8511C48.981 20.8511 48.2563 21.7924 48.2563 23.2492V23.8095C48.2563 25.3036 48.9884 26.2449 50.1688 26.2449ZM58.9807 27.6121C57.9572 27.6121 57.1802 27.1265 56.7619 26.4018H56.7021V30.1222H55.0436V19.6035H56.6573V20.7614H56.7171C57.1504 20.0069 57.9572 19.4989 59.018 19.4989C60.7886 19.4989 62.0511 20.8361 62.0511 23.1969V23.8991C62.0511 26.2449 60.8035 27.6121 58.9807 27.6121ZM58.5997 26.2449C59.6531 26.2449 60.3702 25.4007 60.3702 23.8095V23.2566C60.3702 21.7251 59.6979 20.8511 58.5698 20.8511C57.4118 20.8511 56.6872 21.7924 56.6872 23.2492V23.8095C56.6872 25.3036 57.4193 26.2449 58.5997 26.2449ZM65.488 24.6686H67.1465C67.2212 25.5501 67.9982 26.3047 69.44 26.3047C70.7624 26.3047 71.5468 25.6846 71.5468 24.7209C71.5468 23.9439 71.0238 23.5256 69.9331 23.2641L68.2597 22.8458C66.9448 22.5395 65.7645 21.755 65.7645 20.0965C65.7645 18.1467 67.4678 17.0784 69.4475 17.0784C71.4272 17.0784 73.0783 18.1467 73.1156 20.0517H71.487C71.4123 19.1851 70.7474 18.4679 69.4251 18.4679C68.2597 18.4679 67.4678 19.0208 67.4678 19.9695C67.4678 20.6344 67.931 21.1125 68.8797 21.3292L70.5457 21.7401C72.0772 22.1136 73.2426 22.8383 73.2426 24.5715C73.2426 26.5736 71.6215 27.7017 69.313 27.7017C66.4742 27.7017 65.5254 26.0432 65.488 24.6686ZM75.2636 19.6035V17.6835H76.8922V19.6035H78.4312V20.9333H76.8922V25.1467C76.8922 26.0059 77.2135 26.2449 78.1025 26.2449C78.2444 26.2449 78.3789 26.2449 78.476 26.23V27.5C78.3416 27.5224 78.0278 27.5523 77.6916 27.5523C75.7716 27.5523 75.2412 26.865 75.2412 25.2812V20.9333H74.1505V19.6035H75.2636ZM82.9101 19.469C85.1812 19.469 86.4138 21.0677 86.4138 23.2193V23.8543C86.4138 26.0806 85.1886 27.6345 82.9101 27.6345C80.6315 27.6345 79.3914 26.0806 79.3914 23.8543V23.2193C79.3914 21.0752 80.639 19.469 82.9101 19.469ZM82.9101 20.7988C81.6774 20.7988 81.0648 21.8073 81.0648 23.2417V23.8468C81.0648 25.2588 81.6699 26.2972 82.9101 26.2972C84.1502 26.2972 84.7479 25.2663 84.7479 23.8468V23.2417C84.7479 21.7999 84.1427 20.7988 82.9101 20.7988ZM87.8148 27.5V19.6035H89.4733V20.6419H89.533C89.7347 20.1488 90.3249 19.4914 91.4231 19.4914C91.6398 19.4914 91.8265 19.5063 91.9834 19.5362V21.0005C91.8415 20.9631 91.5501 20.9407 91.2737 20.9407C89.9439 20.9407 89.4957 21.7625 89.4957 22.8233V27.5H87.8148ZM96.0066 27.6345C93.8924 27.6345 92.5477 26.2375 92.5477 23.8991V23.0998C92.5477 20.8959 93.8625 19.469 95.9394 19.469C98.0461 19.469 99.3161 20.9482 99.3161 23.1745V23.929H94.1837V24.1158C94.1837 25.4456 94.9009 26.3271 96.029 26.3271C96.8732 26.3271 97.4484 25.9087 97.6501 25.2289H99.2265C98.9874 26.5064 97.9564 27.6345 96.0066 27.6345ZM94.1837 22.771H97.695V22.7561C97.695 21.6355 97.0002 20.754 95.9468 20.754C94.8785 20.754 94.1837 21.6355 94.1837 22.7561V22.771Z" fill="white"/>
</svg>
