<svg width="25" height="24" viewBox="0 0 25 24" fill="none" xmlns="http://www.w3.org/2000/svg">
<path d="M18.5423 7.42724C18.4017 7.06536 18.2338 6.80688 17.9624 6.53548C17.6911 6.26407 17.4327 6.09606 17.0709 5.95551C16.7979 5.84889 16.3877 5.72288 15.6318 5.68895C14.8145 5.65179 14.569 5.64372 12.4984 5.64372C12.24 5.64372 12.009 5.64372 11.8023 5.64372C10.3568 5.64372 10.0806 5.65341 9.36506 5.68572C8.60918 5.71965 8.19893 5.84566 7.92597 5.95228C7.56418 6.09283 7.30576 6.26084 7.03442 6.53225C6.76308 6.80365 6.5951 7.06213 6.45458 7.42401C6.34799 7.69703 6.222 8.10737 6.18809 8.86343C6.15094 9.68087 6.14286 9.92482 6.14286 11.9959C6.14286 14.067 6.15094 14.3125 6.18809 15.13C6.222 15.886 6.3496 16.2964 6.45458 16.5694C6.5951 16.9313 6.76308 17.1898 7.03442 17.4612C7.30576 17.7326 7.56418 17.9006 7.92597 18.0411C8.19893 18.1478 8.60918 18.2738 9.36506 18.3093C10.1823 18.3465 10.4278 18.3545 12.4984 18.3545C14.569 18.3545 14.8145 18.3465 15.6318 18.3093C16.3877 18.2754 16.7979 18.1494 17.0709 18.0427C17.4327 17.9022 17.6911 17.7342 17.9624 17.4628C18.2338 17.1914 18.4017 16.9345 18.5423 16.5726C18.6489 16.2996 18.7748 15.8893 18.8088 15.1332C18.8459 14.3158 18.854 14.0702 18.854 12.0007C18.854 9.93128 18.8459 9.68572 18.8088 8.86827C18.7748 8.11222 18.6472 7.70188 18.5423 7.42885V7.42724ZM12.4984 15.983C10.3002 15.983 8.51711 14.2011 8.51711 12.0007C8.51711 9.80042 10.3002 8.01852 12.4984 8.01852C14.6966 8.01852 16.4797 9.80204 16.4797 12.0007C16.4797 14.1995 14.6982 15.983 12.4984 15.983ZM16.6364 8.79234C16.1228 8.79234 15.7061 8.37554 15.7061 7.86181C15.7061 7.34808 16.1228 6.93128 16.6364 6.93128C17.15 6.93128 17.5667 7.34808 17.5667 7.86181C17.5667 8.37554 17.15 8.79234 16.6364 8.79234Z" fill="url(#paint0_radial_472_30112)"/>
<path d="M18.5423 7.42724C18.4017 7.06536 18.2338 6.80688 17.9624 6.53548C17.6911 6.26407 17.4327 6.09606 17.0709 5.95551C16.7979 5.84889 16.3877 5.72288 15.6318 5.68895C14.8145 5.65179 14.569 5.64372 12.4984 5.64372C12.24 5.64372 12.009 5.64372 11.8023 5.64372C10.3568 5.64372 10.0806 5.65341 9.36506 5.68572C8.60918 5.71965 8.19893 5.84566 7.92597 5.95228C7.56418 6.09283 7.30576 6.26084 7.03442 6.53225C6.76308 6.80365 6.5951 7.06213 6.45458 7.42401C6.34799 7.69703 6.222 8.10737 6.18809 8.86343C6.15094 9.68087 6.14286 9.92482 6.14286 11.9959C6.14286 14.067 6.15094 14.3125 6.18809 15.13C6.222 15.886 6.3496 16.2964 6.45458 16.5694C6.5951 16.9313 6.76308 17.1898 7.03442 17.4612C7.30576 17.7326 7.56418 17.9006 7.92597 18.0411C8.19893 18.1478 8.60918 18.2738 9.36506 18.3093C10.1823 18.3465 10.4278 18.3545 12.4984 18.3545C14.569 18.3545 14.8145 18.3465 15.6318 18.3093C16.3877 18.2754 16.7979 18.1494 17.0709 18.0427C17.4327 17.9022 17.6911 17.7342 17.9624 17.4628C18.2338 17.1914 18.4017 16.9345 18.5423 16.5726C18.6489 16.2996 18.7748 15.8893 18.8088 15.1332C18.8459 14.3158 18.854 14.0702 18.854 12.0007C18.854 9.93128 18.8459 9.68572 18.8088 8.86827C18.7748 8.11222 18.6472 7.70188 18.5423 7.42885V7.42724ZM12.4984 15.983C10.3002 15.983 8.51711 14.2011 8.51711 12.0007C8.51711 9.80042 10.3002 8.01852 12.4984 8.01852C14.6966 8.01852 16.4797 9.80204 16.4797 12.0007C16.4797 14.1995 14.6982 15.983 12.4984 15.983ZM16.6364 8.79234C16.1228 8.79234 15.7061 8.37554 15.7061 7.86181C15.7061 7.34808 16.1228 6.93128 16.6364 6.93128C17.15 6.93128 17.5667 7.34808 17.5667 7.86181C17.5667 8.37554 17.15 8.79234 16.6364 8.79234Z" fill="url(#paint1_radial_472_30112)"/>
<path d="M12.4984 14.5856C13.9256 14.5856 15.0826 13.4284 15.0826 12.0008C15.0826 10.5733 13.9256 9.41602 12.4984 9.41602C11.0712 9.41602 9.91416 10.5733 9.91416 12.0008C9.91416 13.4284 11.0712 14.5856 12.4984 14.5856Z" fill="url(#paint2_radial_472_30112)"/>
<path d="M12.4984 14.5856C13.9256 14.5856 15.0826 13.4284 15.0826 12.0008C15.0826 10.5733 13.9256 9.41602 12.4984 9.41602C11.0712 9.41602 9.91416 10.5733 9.91416 12.0008C9.91416 13.4284 11.0712 14.5856 12.4984 14.5856Z" fill="url(#paint3_radial_472_30112)"/>
<path d="M22.9806 6.05089C22.9144 5.20759 22.7706 4.64055 22.4751 4.0412C22.2328 3.55008 21.9647 3.18498 21.5754 2.81018C20.8809 2.1462 20.0314 1.74233 19.0187 1.59693C18.5277 1.52585 18.4308 1.50485 15.9209 1.5H12.5032C8.11975 1.5 6.83733 1.50485 6.5886 1.52585C5.68897 1.60016 5.12852 1.74233 4.51961 2.04604C4.04961 2.28029 3.67813 2.55008 3.31311 2.92973C2.64605 3.62116 2.24227 4.47092 2.09691 5.48384C2.02584 5.97496 2.00485 6.07512 2 8.58239C2 9.41922 2 10.5194 2 11.996C2 16.3772 2.00485 17.6583 2.02584 17.9071C2.09852 18.7827 2.23581 19.3336 2.52653 19.9362C3.08214 21.0897 4.14329 21.9556 5.3934 22.2787C5.82626 22.3901 6.30434 22.4515 6.91809 22.4806C7.17813 22.4919 9.82856 22.5 12.4806 22.5C15.1327 22.5 17.7847 22.4968 18.0383 22.4838C18.749 22.4499 19.1624 22.395 19.6179 22.2771C20.8761 21.9523 21.9179 21.0994 22.4848 19.9297C22.769 19.3417 22.9144 18.7698 22.9806 17.9394C22.9952 17.7585 23 14.8732 23 11.9927C23 9.11228 22.9935 6.23182 22.979 6.05089H22.9806ZM20.2042 15.1979C20.1654 16.0234 20.0346 16.5872 19.844 17.08C19.6454 17.5905 19.3805 18.0218 18.9492 18.4531C18.518 18.8845 18.0868 19.1494 17.5764 19.3481C17.0838 19.5404 16.5185 19.6712 15.6931 19.7084C14.8662 19.7456 14.6029 19.7552 12.4968 19.7552C10.3906 19.7552 10.1274 19.7456 9.30042 19.7084C8.47508 19.6712 7.9114 19.5404 7.41878 19.3481C6.9084 19.1494 6.47716 18.8845 6.04592 18.4531C5.61467 18.0218 5.34979 17.5889 5.15113 17.08C4.95893 16.5872 4.82972 16.0234 4.79096 15.1979C4.75381 14.3708 4.74412 14.1074 4.74412 12.0008C4.74412 9.89418 4.75381 9.63086 4.79096 8.80371C4.8281 7.97819 4.95893 7.41438 5.15113 6.92165C5.34979 6.41115 5.61467 5.97981 6.04592 5.54846C6.47716 5.11712 6.91001 4.85218 7.41878 4.65509C7.9114 4.46284 8.47508 4.33199 9.30042 4.29483C10.1274 4.25767 10.3922 4.24798 12.4952 4.24798H12.4984C14.6029 4.24798 14.8662 4.25767 15.6931 4.29483C16.5185 4.33199 17.0821 4.46284 17.5764 4.65509C18.0868 4.85218 18.518 5.11712 18.9492 5.54846C19.3805 5.97981 19.6454 6.41276 19.844 6.92165C20.0346 7.41438 20.1654 7.97819 20.2042 8.80371C20.2413 9.63086 20.251 9.8958 20.251 12.0008C20.251 14.1058 20.2413 14.3708 20.2042 15.1979Z" fill="url(#paint4_radial_472_30112)"/>
<path d="M22.9806 6.05089C22.9144 5.20759 22.7706 4.64055 22.4751 4.0412C22.2328 3.55008 21.9647 3.18498 21.5754 2.81018C20.8809 2.1462 20.0314 1.74233 19.0187 1.59693C18.5277 1.52585 18.4308 1.50485 15.9209 1.5H12.5032C8.11975 1.5 6.83733 1.50485 6.5886 1.52585C5.68897 1.60016 5.12852 1.74233 4.51961 2.04604C4.04961 2.28029 3.67813 2.55008 3.31311 2.92973C2.64605 3.62116 2.24227 4.47092 2.09691 5.48384C2.02584 5.97496 2.00485 6.07512 2 8.58239C2 9.41922 2 10.5194 2 11.996C2 16.3772 2.00485 17.6583 2.02584 17.9071C2.09852 18.7827 2.23581 19.3336 2.52653 19.9362C3.08214 21.0897 4.14329 21.9556 5.3934 22.2787C5.82626 22.3901 6.30434 22.4515 6.91809 22.4806C7.17813 22.4919 9.82856 22.5 12.4806 22.5C15.1327 22.5 17.7847 22.4968 18.0383 22.4838C18.749 22.4499 19.1624 22.395 19.6179 22.2771C20.8761 21.9523 21.9179 21.0994 22.4848 19.9297C22.769 19.3417 22.9144 18.7698 22.9806 17.9394C22.9952 17.7585 23 14.8732 23 11.9927C23 9.11228 22.9935 6.23182 22.979 6.05089H22.9806ZM20.2042 15.1979C20.1654 16.0234 20.0346 16.5872 19.844 17.08C19.6454 17.5905 19.3805 18.0218 18.9492 18.4531C18.518 18.8845 18.0868 19.1494 17.5764 19.3481C17.0838 19.5404 16.5185 19.6712 15.6931 19.7084C14.8662 19.7456 14.6029 19.7552 12.4968 19.7552C10.3906 19.7552 10.1274 19.7456 9.30042 19.7084C8.47508 19.6712 7.9114 19.5404 7.41878 19.3481C6.9084 19.1494 6.47716 18.8845 6.04592 18.4531C5.61467 18.0218 5.34979 17.5889 5.15113 17.08C4.95893 16.5872 4.82972 16.0234 4.79096 15.1979C4.75381 14.3708 4.74412 14.1074 4.74412 12.0008C4.74412 9.89418 4.75381 9.63086 4.79096 8.80371C4.8281 7.97819 4.95893 7.41438 5.15113 6.92165C5.34979 6.41115 5.61467 5.97981 6.04592 5.54846C6.47716 5.11712 6.91001 4.85218 7.41878 4.65509C7.9114 4.46284 8.47508 4.33199 9.30042 4.29483C10.1274 4.25767 10.3922 4.24798 12.4952 4.24798H12.4984C14.6029 4.24798 14.8662 4.25767 15.6931 4.29483C16.5185 4.33199 17.0821 4.46284 17.5764 4.65509C18.0868 4.85218 18.518 5.11712 18.9492 5.54846C19.3805 5.97981 19.6454 6.41276 19.844 6.92165C20.0346 7.41438 20.1654 7.97819 20.2042 8.80371C20.2413 9.63086 20.251 9.8958 20.251 12.0008C20.251 14.1058 20.2413 14.3708 20.2042 15.1979Z" fill="url(#paint5_radial_472_30112)"/>
<defs>
<radialGradient id="paint0_radial_472_30112" cx="0" cy="0" r="1" gradientUnits="userSpaceOnUse" gradientTransform="translate(7.57815 24.1174) rotate(-90) scale(20.8126 19.3573)">
<stop stop-color="#FFDD55"/>
<stop offset="0.1" stop-color="#FFDD55"/>
<stop offset="0.5" stop-color="#FF543E"/>
<stop offset="1" stop-color="#C837AB"/>
</radialGradient>
<radialGradient id="paint1_radial_472_30112" cx="0" cy="0" r="1" gradientUnits="userSpaceOnUse" gradientTransform="translate(-1.51761 3.0128) rotate(78.6806) scale(9.3033 38.3486)">
<stop stop-color="#3771C8"/>
<stop offset="0.128" stop-color="#3771C8"/>
<stop offset="1" stop-color="#6600FF" stop-opacity="0"/>
</radialGradient>
<radialGradient id="paint2_radial_472_30112" cx="0" cy="0" r="1" gradientUnits="userSpaceOnUse" gradientTransform="translate(7.57815 24.1174) rotate(-90) scale(20.8126 19.3573)">
<stop stop-color="#FFDD55"/>
<stop offset="0.1" stop-color="#FFDD55"/>
<stop offset="0.5" stop-color="#FF543E"/>
<stop offset="1" stop-color="#C837AB"/>
</radialGradient>
<radialGradient id="paint3_radial_472_30112" cx="0" cy="0" r="1" gradientUnits="userSpaceOnUse" gradientTransform="translate(-1.51761 3.0128) rotate(78.6806) scale(9.3033 38.3486)">
<stop stop-color="#3771C8"/>
<stop offset="0.128" stop-color="#3771C8"/>
<stop offset="1" stop-color="#6600FF" stop-opacity="0"/>
</radialGradient>
<radialGradient id="paint4_radial_472_30112" cx="0" cy="0" r="1" gradientUnits="userSpaceOnUse" gradientTransform="translate(7.57815 24.1174) rotate(-90) scale(20.8126 19.3573)">
<stop stop-color="#FFDD55"/>
<stop offset="0.1" stop-color="#FFDD55"/>
<stop offset="0.5" stop-color="#FF543E"/>
<stop offset="1" stop-color="#C837AB"/>
</radialGradient>
<radialGradient id="paint5_radial_472_30112" cx="0" cy="0" r="1" gradientUnits="userSpaceOnUse" gradientTransform="translate(-1.51761 3.0128) rotate(78.6806) scale(9.3033 38.3486)">
<stop stop-color="#3771C8"/>
<stop offset="0.128" stop-color="#3771C8"/>
<stop offset="1" stop-color="#6600FF" stop-opacity="0"/>
</radialGradient>
</defs>
</svg>
