<svg width="25" height="24" viewBox="0 0 25 24" fill="none" xmlns="http://www.w3.org/2000/svg">
<path fill-rule="evenodd" clip-rule="evenodd" d="M20.6667 1.5H4.33333C3.04417 1.5 2 2.54417 2 3.83333V20.1667C2 21.4558 3.04417 22.5 4.33333 22.5H20.6667C21.9558 22.5 23 21.4558 23 20.1667V3.83333C23 2.54417 21.9558 1.5 20.6667 1.5ZM8.34958 19.5833H5.21708V9.47125H8.34958V19.5833ZM6.76875 8.14708C5.745 8.14708 4.91667 7.31292 4.91667 6.28042C4.91667 5.24792 5.745 4.41375 6.76875 4.41375C7.7925 4.41375 8.62083 5.24792 8.62083 6.28042C8.62083 7.31292 7.7925 8.14708 6.76875 8.14708ZM20.0833 19.5833H16.9683V14.275C16.9683 12.8196 16.4142 12.0058 15.265 12.0058C14.0108 12.0058 13.3575 12.8517 13.3575 14.275V19.5833H10.3533V9.47125H13.3575V10.8333C13.3575 10.8333 14.2617 9.16208 16.4054 9.16208C18.5492 9.16208 20.0862 10.4717 20.0862 13.1812V19.5833H20.0833Z" fill="#0A66C2"/>
</svg>
