<svg width="195" height="48" viewBox="0 0 195 48" fill="none" xmlns="http://www.w3.org/2000/svg">
<circle cx="24" cy="24" r="24" fill="#D9D9D9"/>
<path d="M65 32.192C63.272 32.192 61.808 31.832 60.608 31.112C59.408 30.376 58.496 29.36 57.872 28.064C57.264 26.752 56.96 25.24 56.96 23.528C56.96 22.232 57.128 21.056 57.464 20C57.816 18.944 58.328 18.032 59 17.264C59.688 16.48 60.528 15.88 61.52 15.464C62.512 15.032 63.656 14.816 64.952 14.816C66.216 14.816 67.344 15.024 68.336 15.44C69.344 15.84 70.168 16.432 70.808 17.216C71.464 18 71.904 18.96 72.128 20.096H69.032C68.904 19.552 68.656 19.096 68.288 18.728C67.936 18.36 67.488 18.08 66.944 17.888C66.4 17.696 65.776 17.6 65.072 17.6C64.16 17.6 63.384 17.76 62.744 18.08C62.104 18.4 61.584 18.84 61.184 19.4C60.784 19.944 60.488 20.576 60.296 21.296C60.12 22 60.032 22.752 60.032 23.552C60.032 24.592 60.2 25.56 60.536 26.456C60.888 27.352 61.432 28.072 62.168 28.616C62.92 29.144 63.896 29.408 65.096 29.408C65.944 29.408 66.688 29.264 67.328 28.976C67.984 28.688 68.496 28.272 68.864 27.728C69.248 27.168 69.456 26.48 69.488 25.664H64.544V23.072H72.512V24.176C72.512 25.824 72.224 27.248 71.648 28.448C71.072 29.648 70.224 30.576 69.104 31.232C68 31.872 66.632 32.192 65 32.192ZM74.7569 32V19.352H77.6849V32H74.7569ZM76.2209 17.888C75.6609 17.888 75.2129 17.72 74.8769 17.384C74.5409 17.048 74.3729 16.608 74.3729 16.064C74.3729 15.536 74.5489 15.104 74.9009 14.768C75.2529 14.416 75.6929 14.24 76.2209 14.24C76.7329 14.24 77.1729 14.408 77.5409 14.744C77.9089 15.08 78.0929 15.52 78.0929 16.064C78.0929 16.608 77.9169 17.048 77.5649 17.384C77.2129 17.72 76.7649 17.888 76.2209 17.888ZM80.4026 32V19.352H83.1386L83.3066 20.96C83.6426 20.512 84.0346 20.16 84.4826 19.904C84.9306 19.648 85.4026 19.464 85.8986 19.352C86.3946 19.224 86.8586 19.16 87.2906 19.16C88.4906 19.16 89.4346 19.424 90.1226 19.952C90.8266 20.48 91.3226 21.184 91.6106 22.064C91.8986 22.944 92.0426 23.928 92.0426 25.016V32H89.1146V25.496C89.1146 25.032 89.0826 24.584 89.0186 24.152C88.9546 23.704 88.8266 23.304 88.6346 22.952C88.4586 22.6 88.2026 22.32 87.8666 22.112C87.5306 21.904 87.0826 21.8 86.5226 21.8C85.8346 21.8 85.2506 21.984 84.7706 22.352C84.2906 22.72 83.9306 23.216 83.6906 23.84C83.4506 24.448 83.3306 25.144 83.3306 25.928V32H80.4026ZM100.553 37.784C99.6252 37.784 98.7532 37.632 97.9372 37.328C97.1372 37.04 96.4572 36.576 95.8972 35.936C95.3532 35.312 94.9852 34.504 94.7932 33.512H97.7932C97.8892 33.896 98.0812 34.208 98.3692 34.448C98.6572 34.688 98.9932 34.856 99.3772 34.952C99.7772 35.064 100.185 35.12 100.601 35.12C101.385 35.12 102.001 34.96 102.449 34.64C102.913 34.32 103.241 33.88 103.433 33.32C103.625 32.776 103.721 32.176 103.721 31.52V30.32C103.433 30.784 103.065 31.152 102.617 31.424C102.185 31.696 101.721 31.888 101.225 32C100.745 32.096 100.265 32.144 99.7852 32.144C98.4732 32.144 97.4012 31.856 96.5692 31.28C95.7532 30.704 95.1532 29.936 94.7692 28.976C94.3852 28 94.1932 26.928 94.1932 25.76C94.1932 24.544 94.4012 23.44 94.8172 22.448C95.2492 21.44 95.8892 20.64 96.7372 20.048C97.6012 19.456 98.6812 19.16 99.9772 19.16C100.729 19.16 101.433 19.296 102.089 19.568C102.761 19.824 103.321 20.216 103.769 20.744L103.961 19.352H106.673V30.896C106.673 32.32 106.465 33.544 106.049 34.568C105.649 35.608 105.001 36.4 104.105 36.944C103.209 37.504 102.025 37.784 100.553 37.784ZM100.385 29.552C101.137 29.552 101.761 29.376 102.257 29.024C102.753 28.656 103.129 28.176 103.385 27.584C103.641 26.976 103.769 26.32 103.769 25.616C103.769 24.896 103.641 24.248 103.385 23.672C103.145 23.096 102.777 22.64 102.281 22.304C101.801 21.968 101.177 21.8 100.409 21.8C99.5932 21.8 98.9452 21.984 98.4652 22.352C97.9852 22.72 97.6332 23.208 97.4092 23.816C97.2012 24.408 97.0972 25.04 97.0972 25.712C97.0972 26.416 97.2092 27.064 97.4332 27.656C97.6572 28.232 98.0092 28.696 98.4892 29.048C98.9692 29.384 99.6012 29.552 100.385 29.552ZM115.053 32.168C113.741 32.168 112.621 31.896 111.693 31.352C110.781 30.808 110.085 30.056 109.605 29.096C109.141 28.12 108.909 26.992 108.909 25.712C108.909 24.432 109.149 23.304 109.629 22.328C110.125 21.336 110.829 20.56 111.741 20C112.669 19.44 113.781 19.16 115.077 19.16C116.037 19.16 116.877 19.336 117.597 19.688C118.317 20.024 118.917 20.488 119.397 21.08C119.893 21.672 120.261 22.344 120.501 23.096C120.741 23.848 120.853 24.64 120.837 25.472C120.821 25.664 120.805 25.856 120.789 26.048C120.773 26.224 120.749 26.416 120.717 26.624H111.837C111.885 27.184 112.029 27.696 112.269 28.16C112.525 28.624 112.877 28.992 113.325 29.264C113.789 29.536 114.365 29.672 115.053 29.672C115.453 29.672 115.837 29.624 116.205 29.528C116.573 29.416 116.893 29.256 117.165 29.048C117.453 28.84 117.645 28.576 117.741 28.256H120.669C120.461 29.168 120.077 29.912 119.517 30.488C118.957 31.064 118.285 31.488 117.501 31.76C116.733 32.032 115.917 32.168 115.053 32.168ZM111.885 24.44H117.981C117.981 23.912 117.861 23.432 117.621 23C117.381 22.568 117.037 22.232 116.589 21.992C116.157 21.736 115.629 21.608 115.005 21.608C114.333 21.608 113.773 21.744 113.325 22.016C112.877 22.288 112.533 22.64 112.293 23.072C112.053 23.504 111.917 23.96 111.885 24.44ZM123.05 32V19.352H125.714L125.882 21.008C126.202 20.528 126.562 20.16 126.962 19.904C127.378 19.632 127.818 19.44 128.282 19.328C128.762 19.216 129.242 19.16 129.722 19.16C129.898 19.16 130.058 19.16 130.202 19.16C130.362 19.16 130.49 19.168 130.586 19.184V21.968H129.818C128.986 21.968 128.282 22.128 127.706 22.448C127.13 22.768 126.698 23.224 126.41 23.816C126.122 24.408 125.978 25.136 125.978 26V32H123.05ZM139.228 32V15.032H142.228V29.264H151.06V32H139.228ZM158.732 32.168C157.436 32.168 156.316 31.904 155.372 31.376C154.444 30.848 153.724 30.096 153.212 29.12C152.716 28.144 152.468 27 152.468 25.688C152.468 24.36 152.724 23.216 153.236 22.256C153.748 21.28 154.468 20.52 155.396 19.976C156.324 19.432 157.436 19.16 158.732 19.16C160.012 19.16 161.116 19.432 162.044 19.976C162.972 20.52 163.684 21.288 164.18 22.28C164.676 23.256 164.924 24.408 164.924 25.736C164.924 27.032 164.676 28.168 164.18 29.144C163.7 30.104 162.996 30.848 162.068 31.376C161.14 31.904 160.028 32.168 158.732 32.168ZM158.708 29.504C159.508 29.504 160.148 29.328 160.628 28.976C161.124 28.624 161.484 28.16 161.708 27.584C161.932 27.008 162.044 26.384 162.044 25.712C162.044 25.04 161.932 24.408 161.708 23.816C161.484 23.224 161.124 22.752 160.628 22.4C160.148 22.032 159.508 21.848 158.708 21.848C157.908 21.848 157.26 22.032 156.764 22.4C156.268 22.752 155.908 23.224 155.684 23.816C155.46 24.392 155.348 25.024 155.348 25.712C155.348 26.384 155.46 27.016 155.684 27.608C155.924 28.184 156.284 28.648 156.764 29C157.26 29.336 157.908 29.504 158.708 29.504ZM173.028 37.784C172.1 37.784 171.228 37.632 170.412 37.328C169.612 37.04 168.932 36.576 168.372 35.936C167.828 35.312 167.46 34.504 167.268 33.512H170.268C170.364 33.896 170.556 34.208 170.844 34.448C171.132 34.688 171.468 34.856 171.852 34.952C172.252 35.064 172.66 35.12 173.076 35.12C173.86 35.12 174.476 34.96 174.924 34.64C175.388 34.32 175.716 33.88 175.908 33.32C176.1 32.776 176.196 32.176 176.196 31.52V30.32C175.908 30.784 175.54 31.152 175.092 31.424C174.66 31.696 174.196 31.888 173.7 32C173.22 32.096 172.74 32.144 172.26 32.144C170.948 32.144 169.876 31.856 169.044 31.28C168.228 30.704 167.628 29.936 167.244 28.976C166.86 28 166.668 26.928 166.668 25.76C166.668 24.544 166.876 23.44 167.292 22.448C167.724 21.44 168.364 20.64 169.212 20.048C170.076 19.456 171.156 19.16 172.452 19.16C173.204 19.16 173.908 19.296 174.564 19.568C175.236 19.824 175.796 20.216 176.244 20.744L176.436 19.352H179.148V30.896C179.148 32.32 178.94 33.544 178.524 34.568C178.124 35.608 177.476 36.4 176.58 36.944C175.684 37.504 174.5 37.784 173.028 37.784ZM172.86 29.552C173.612 29.552 174.236 29.376 174.732 29.024C175.228 28.656 175.604 28.176 175.86 27.584C176.116 26.976 176.244 26.32 176.244 25.616C176.244 24.896 176.116 24.248 175.86 23.672C175.62 23.096 175.252 22.64 174.756 22.304C174.276 21.968 173.652 21.8 172.884 21.8C172.068 21.8 171.42 21.984 170.94 22.352C170.46 22.72 170.108 23.208 169.884 23.816C169.676 24.408 169.572 25.04 169.572 25.712C169.572 26.416 169.684 27.064 169.908 27.656C170.132 28.232 170.484 28.696 170.964 29.048C171.444 29.384 172.076 29.552 172.86 29.552ZM187.648 32.168C186.352 32.168 185.232 31.904 184.288 31.376C183.36 30.848 182.64 30.096 182.128 29.12C181.632 28.144 181.384 27 181.384 25.688C181.384 24.36 181.64 23.216 182.152 22.256C182.664 21.28 183.384 20.52 184.312 19.976C185.24 19.432 186.352 19.16 187.648 19.16C188.928 19.16 190.032 19.432 190.96 19.976C191.888 20.52 192.6 21.288 193.096 22.28C193.592 23.256 193.84 24.408 193.84 25.736C193.84 27.032 193.592 28.168 193.096 29.144C192.616 30.104 191.912 30.848 190.984 31.376C190.056 31.904 188.944 32.168 187.648 32.168ZM187.624 29.504C188.424 29.504 189.064 29.328 189.544 28.976C190.04 28.624 190.4 28.16 190.624 27.584C190.848 27.008 190.96 26.384 190.96 25.712C190.96 25.04 190.848 24.408 190.624 23.816C190.4 23.224 190.04 22.752 189.544 22.4C189.064 22.032 188.424 21.848 187.624 21.848C186.824 21.848 186.176 22.032 185.68 22.4C185.184 22.752 184.824 23.224 184.6 23.816C184.376 24.392 184.264 25.024 184.264 25.712C184.264 26.384 184.376 27.016 184.6 27.608C184.84 28.184 185.2 28.648 185.68 29C186.176 29.336 186.824 29.504 187.624 29.504Z" fill="#0A0D14"/>
</svg>
