<svg width="112" height="37" viewBox="0 0 112 37" fill="none" xmlns="http://www.w3.org/2000/svg">
<rect x="0.5" width="111" height="37" rx="5.55" fill="#0A0D14"/>
<path d="M16.9695 18.0017L7.98291 27.7551C7.98375 27.7568 7.98375 27.7594 7.9846 27.7611C8.2606 28.8202 9.20594 29.5996 10.3285 29.5996C10.7776 29.5996 11.1987 29.4753 11.56 29.2578L11.5887 29.2405L21.7037 23.272L16.9695 18.0017Z" fill="#EA4335"/>
<path d="M26.0605 16.3414L26.0521 16.3353L21.685 13.7468L16.765 18.2239L21.7027 23.2715L26.0462 20.7088C26.8075 20.2876 27.3249 19.4668 27.3249 18.5208C27.3249 17.58 26.8151 16.7634 26.0605 16.3414Z" fill="#FBBC04"/>
<path d="M7.98274 9.2442C7.92872 9.4479 7.90002 9.66195 7.90002 9.88292V27.118C7.90002 27.339 7.92872 27.553 7.98359 27.7559L17.2782 18.2519L7.98274 9.2442Z" fill="#4285F4"/>
<path d="M17.0358 18.5L21.6865 13.745L11.5833 7.75483C11.2161 7.52955 10.7873 7.40008 10.329 7.40008C9.20641 7.40008 8.25939 8.18122 7.98339 9.24115C7.98339 9.24201 7.98254 9.24287 7.98254 9.24374L17.0358 18.5Z" fill="#34A853"/>
<path d="M43.0436 9.8285C43.0436 10.6785 42.7914 11.3557 42.2871 11.86C41.7204 12.4607 40.9752 12.761 40.0516 12.761C39.1676 12.761 38.4196 12.455 37.8076 11.843C37.1956 11.231 36.8896 10.4773 36.8896 9.582C36.8896 8.68667 37.1956 7.933 37.8076 7.321C38.4196 6.709 39.1676 6.403 40.0516 6.403C40.4992 6.403 40.9214 6.48233 41.3181 6.641C41.7147 6.79967 42.0406 7.0235 42.2956 7.3125L41.7346 7.8735C41.5476 7.64683 41.3039 7.47117 41.0036 7.3465C40.7089 7.21617 40.3916 7.151 40.0516 7.151C39.3886 7.151 38.8276 7.3805 38.3686 7.8395C37.9152 8.30417 37.6886 8.885 37.6886 9.582C37.6886 10.279 37.9152 10.8598 38.3686 11.3245C38.8276 11.7835 39.3886 12.013 40.0516 12.013C40.6579 12.013 41.1622 11.843 41.5646 11.503C41.9669 11.163 42.1992 10.6955 42.2616 10.1005H40.0516V9.3695H43.0011C43.0294 9.52817 43.0436 9.68117 43.0436 9.8285ZM47.5467 6.539V7.287H44.7757V9.2165H47.2747V9.9475H44.7757V11.877H47.5467V12.625H43.9937V6.539H47.5467ZM50.6746 7.287V12.625H49.8926V7.287H48.1926V6.539H52.3746V7.287H50.6746ZM55.8407 12.625H55.0587V6.539H55.8407V12.625ZM59.1414 7.287V12.625H58.3594V7.287H56.6594V6.539H60.8414V7.287H59.1414ZM69.3179 9.582C69.3179 10.483 69.0176 11.2367 68.4169 11.843C67.8106 12.455 67.0683 12.761 66.1899 12.761C65.3059 12.761 64.5636 12.455 63.9629 11.843C63.3623 11.2367 63.0619 10.483 63.0619 9.582C63.0619 8.681 63.3623 7.92733 63.9629 7.321C64.5636 6.709 65.3059 6.403 66.1899 6.403C67.0739 6.403 67.8163 6.71183 68.4169 7.3295C69.0176 7.93583 69.3179 8.68667 69.3179 9.582ZM63.8609 9.582C63.8609 10.2847 64.0819 10.8655 64.5239 11.3245C64.9716 11.7835 65.5269 12.013 66.1899 12.013C66.8529 12.013 67.4054 11.7835 67.8474 11.3245C68.2951 10.8712 68.5189 10.2903 68.5189 9.582C68.5189 8.87367 68.2951 8.29283 67.8474 7.8395C67.4054 7.3805 66.8529 7.151 66.1899 7.151C65.5269 7.151 64.9716 7.3805 64.5239 7.8395C64.0819 8.2985 63.8609 8.87933 63.8609 9.582ZM71.0228 12.625H70.2408V6.539H71.1928L74.1508 11.2735H74.1848L74.1508 10.1005V6.539H74.9328V12.625H74.1168L71.0228 7.661H70.9888L71.0228 8.834V12.625Z" fill="white"/>
<path d="M87.0043 29.9543H88.511V19.7687H87.0043V29.9543ZM100.575 23.4377L98.8476 27.8538H98.7959L97.0034 23.4377H95.3805L98.0684 29.6097L96.5367 33.0432H98.1072L102.25 23.4377H100.575ZM92.0305 28.7973C91.5364 28.7973 90.8485 28.5488 90.8485 27.932C90.8485 27.1466 91.7051 26.8451 92.4455 26.8451C93.1076 26.8451 93.4201 26.9893 93.8222 27.1857C93.7051 28.1292 92.9001 28.7973 92.0305 28.7973ZM92.2122 23.2152C91.1214 23.2152 89.991 23.7 89.5243 24.7747L90.8614 25.3377C91.1472 24.7747 91.6793 24.5906 92.238 24.5906C93.0172 24.5906 93.8093 25.0623 93.8222 25.9016V26.0059C93.5493 25.8486 92.9655 25.6131 92.2509 25.6131C90.8097 25.6131 89.3418 26.4124 89.3418 27.9059C89.3418 29.2691 90.5239 30.1474 91.848 30.1474C92.8614 30.1474 93.4201 29.6887 93.7705 29.1509H93.8222V29.9372H95.2764V26.0319C95.2764 24.2239 93.9393 23.2152 92.2122 23.2152ZM82.901 24.6778H80.7581V21.1864H82.901C84.0273 21.1864 84.6668 22.1275 84.6668 22.9317C84.6668 23.7212 84.0273 24.6778 82.901 24.6778ZM82.8622 19.7687H79.2523V29.9543H80.7581V26.0955H82.8622C84.532 26.0955 86.1735 24.8749 86.1735 22.9317C86.1735 20.9884 84.532 19.7687 82.8622 19.7687ZM63.1765 28.799C62.1357 28.799 61.2645 27.9198 61.2645 26.7123C61.2645 25.4917 62.1357 24.5987 63.1765 24.5987C64.2043 24.5987 65.0101 25.4917 65.0101 26.7123C65.0101 27.9198 64.2043 28.799 63.1765 28.799ZM64.9068 24.008H64.8543C64.516 23.6014 63.866 23.234 63.0465 23.234C61.3291 23.234 59.7554 24.756 59.7554 26.7123C59.7554 28.6547 61.3291 30.1645 63.0465 30.1645C63.866 30.1645 64.516 29.7971 64.8543 29.3766H64.9068V29.8761C64.9068 31.2018 64.2043 31.9106 63.0723 31.9106C62.1486 31.9106 61.5762 31.2409 61.342 30.6762L60.0283 31.2278C60.4054 32.1469 61.4074 33.2754 63.0723 33.2754C64.8414 33.2754 66.3375 32.2251 66.3375 29.6659V23.4434H64.9068V24.008ZM67.3783 29.9543H68.8874V19.7679H67.3783V29.9543ZM71.111 26.5941C71.0723 25.2554 72.1389 24.5727 72.9059 24.5727C73.505 24.5727 74.0121 24.8741 74.1808 25.3076L71.111 26.5941ZM75.7941 25.4388C75.5082 24.6647 74.6362 23.234 72.8542 23.234C71.0852 23.234 69.6157 24.6378 69.6157 26.6992C69.6157 28.6417 71.0723 30.1645 73.023 30.1645C74.5975 30.1645 75.5082 29.1933 75.8853 28.6287L74.7145 27.8408C74.3246 28.4184 73.7909 28.799 73.023 28.799C72.2559 28.799 71.7093 28.4445 71.3581 27.7495L75.9499 25.8323L75.7941 25.4388ZM39.2114 24.2973V25.7671H42.697C42.5929 26.5941 42.32 27.1979 41.9041 27.6175C41.3963 28.13 40.6026 28.6947 39.2114 28.6947C37.0645 28.6947 35.3866 26.9486 35.3866 24.7829C35.3866 22.6164 37.0645 20.8711 39.2114 20.8711C40.3692 20.8711 41.2146 21.3306 41.8387 21.9213L42.8666 20.8841C41.9946 20.0441 40.8375 19.4004 39.2114 19.4004C36.2716 19.4004 33.8 21.8162 33.8 24.7829C33.8 27.7495 36.2716 30.1645 39.2114 30.1645C40.798 30.1645 41.9946 29.639 42.9312 28.6547C43.8944 27.6835 44.1932 26.3187 44.1932 25.2155C44.1932 24.8741 44.1673 24.5596 44.1149 24.2973H39.2114ZM48.1568 28.799C47.1161 28.799 46.2182 27.9328 46.2182 26.6992C46.2182 25.4518 47.1161 24.5987 48.1568 24.5987C49.1968 24.5987 50.0946 25.4518 50.0946 26.6992C50.0946 27.9328 49.1968 28.799 48.1568 28.799ZM48.1568 23.234C46.257 23.234 44.7091 24.6908 44.7091 26.6992C44.7091 28.6947 46.257 30.1645 48.1568 30.1645C50.0559 30.1645 51.6037 28.6947 51.6037 26.6992C51.6037 24.6908 50.0559 23.234 48.1568 23.234ZM55.6763 28.799C54.6356 28.799 53.7377 27.9328 53.7377 26.6992C53.7377 25.4518 54.6356 24.5987 55.6763 24.5987C56.7171 24.5987 57.6142 25.4518 57.6142 26.6992C57.6142 27.9328 56.7171 28.799 55.6763 28.799ZM55.6763 23.234C53.7773 23.234 52.2295 24.6908 52.2295 26.6992C52.2295 28.6947 53.7773 30.1645 55.6763 30.1645C57.5754 30.1645 59.1232 28.6947 59.1232 26.6992C59.1232 24.6908 57.5754 23.234 55.6763 23.234Z" fill="white"/>
</svg>
