<svg width="21" height="20" viewBox="0 0 21 20" fill="none" xmlns="http://www.w3.org/2000/svg">
<path d="M3.75 3.75H17.25C17.4489 3.75 17.6397 3.82902 17.7803 3.96967C17.921 4.11032 18 4.30109 18 4.5V15.5C18 15.6989 17.921 15.8897 17.7803 16.0303C17.6397 16.171 17.4489 16.25 17.25 16.25H3.75C3.55109 16.25 3.36032 16.171 3.21967 16.0303C3.07902 15.8897 3 15.6989 3 15.5V4.5C3 4.30109 3.07902 4.11032 3.21967 3.96967C3.36032 3.82902 3.55109 3.75 3.75 3.75ZM10.545 10.2622L5.736 6.1785L4.76475 7.3215L10.5547 12.2378L16.2405 7.31775L15.2595 6.183L10.545 10.2622Z" fill="white"/>
</svg>
