<svg width="113" height="40" viewBox="0 0 113 40" fill="none" xmlns="http://www.w3.org/2000/svg">
<path d="M52.9959 17.3381V31.0606H46.2272V7.32339H52.6778V11.511H52.9638C53.5038 10.1301 54.41 9.03582 55.6812 8.22696C56.9523 7.4181 58.4934 7.01367 60.3046 7.01367C61.9994 7.01367 63.4764 7.37459 64.7368 8.09514C65.9973 8.81697 66.977 9.8434 67.6761 11.1783C68.3751 12.5131 68.7253 14.1014 68.7253 15.9457V31.0593H61.9566V17.1218C61.9673 15.6692 61.5864 14.534 60.8125 13.7149C60.0386 12.8958 58.9746 12.4863 57.6193 12.4863C56.7077 12.4863 55.9057 12.677 55.212 13.0584C54.5183 13.4397 53.9783 13.9926 53.592 14.7196C53.2044 15.444 53.0052 16.3181 52.9959 17.3381Z" fill="#775BE5"/>
<path d="M83.4416 40.0002C81.2496 40.0002 79.3716 39.7135 77.8091 39.1401C76.2466 38.5668 75.0048 37.7886 74.0825 36.8044C73.1616 35.8202 72.5628 34.7145 72.2875 33.4884L78.5469 32.6821C78.738 33.1479 79.0401 33.5844 79.4531 33.9901C79.8661 34.3958 80.4142 34.7221 81.0972 34.9717C81.7802 35.22 82.6143 35.3441 83.5994 35.3441C85.071 35.3441 86.2873 35.0024 87.2457 34.3177C88.2041 33.633 88.6839 32.4901 88.6839 30.8865V26.6118H88.3979C88.1011 27.2607 87.656 27.875 87.0626 28.4522C86.4691 29.0307 85.7072 29.5017 84.7743 29.8664C83.8426 30.2312 82.7292 30.4142 81.438 30.4142C79.6055 30.4142 77.9401 30.0059 76.4417 29.1894C74.9433 28.3729 73.7511 27.1199 72.8662 25.4318C71.9814 23.7437 71.5389 21.6051 71.5389 19.0198C71.5389 16.3731 71.9894 14.1615 72.8889 12.3864C73.7885 10.6113 74.9888 9.2828 76.4871 8.40099C77.9855 7.51918 79.6309 7.07764 81.4207 7.07764C82.7867 7.07764 83.9308 7.29777 84.8531 7.73931C85.7741 8.18086 86.5186 8.72863 87.0853 9.38263C87.652 10.0366 88.0891 10.6778 88.3965 11.3075H88.6505V7.38224H95.3711V30.9786C95.3711 32.9662 94.8631 34.63 93.846 35.9687C92.8288 37.3074 91.4227 38.3134 89.6276 38.9891C87.8351 39.6636 85.7714 40.0002 83.4416 40.0002ZM83.5847 25.547C84.6753 25.547 85.6003 25.2859 86.3568 24.7637C87.1147 24.2415 87.6961 23.4916 88.1051 22.5125C88.5128 21.5334 88.7173 20.3598 88.7173 18.9904C88.7173 17.6209 88.5155 16.432 88.1132 15.4235C87.7108 14.4149 87.1281 13.6304 86.3648 13.0724C85.6016 12.5144 84.6753 12.2354 83.5847 12.2354C82.4726 12.2354 81.5356 12.5221 80.7724 13.0954C80.0092 13.6688 79.4317 14.4623 79.0401 15.4759C78.6485 16.4908 78.452 17.6619 78.452 18.9904C78.452 20.3393 78.6512 21.5027 79.0481 22.4818C79.4451 23.4608 80.0225 24.216 80.7804 24.7484C81.5369 25.2808 82.4726 25.547 83.5847 25.547Z" fill="#775BE5"/>
<path d="M43.3981 7.3999H36.6294V31.0603H43.3981V7.3999Z" fill="#775BE5"/>
<path d="M43.3992 0H36.6278V4.2977H43.3992V0Z" fill="#775BE5"/>
<path d="M104.962 26.7634H98.1902V31.0611H104.962V26.7634Z" fill="#FE8D00"/>
<path d="M111.969 7.04519C111.574 7.00552 111.209 6.9812 110.869 6.9812C109.507 6.9812 108.299 7.36004 107.25 8.11898C106.201 8.87664 105.455 9.99522 105.008 11.467H104.757V7.32676H98.1914V23.5385H104.963V17.6307C104.963 16.6606 105.189 15.8095 105.636 15.0659C106.09 14.3224 106.7 13.7464 107.482 13.3279C108.259 12.9094 109.148 12.7021 110.141 12.7021C110.609 12.7021 111.123 12.7366 111.683 12.8109C112.243 12.88 112.686 12.9632 113 13.0566V7.21797C112.705 7.14374 112.361 7.08487 111.969 7.04519Z" fill="#775BE5"/>
<path d="M33.8114 17.6312C33.8114 26.5722 26.2421 33.8186 16.9044 33.8186C7.56934 33.8186 0 26.5709 0 17.6312C0 11.8847 3.12772 6.83577 7.84201 3.96509C6.94112 4.99152 6.22335 6.19585 5.6887 7.57679C5.0538 9.21626 4.73702 11.081 4.73702 13.1671C4.73702 15.8842 5.27033 18.2289 6.33162 20.2024C7.39558 22.1772 8.88191 23.6976 10.7906 24.7676C12.698 25.835 14.9141 26.3699 17.435 26.3699C19.6926 26.3699 21.6975 25.9322 23.4499 25.0568C25.2022 24.1801 26.5762 22.9323 27.5734 21.3095C28.5718 19.6866 29.0704 17.7451 29.0704 15.4811V12.2354H17.8173V16.3347H23.5942C23.5715 17.365 23.3309 18.2622 22.8684 19.0275C22.3819 19.8325 21.6815 20.4545 20.7659 20.8948C19.853 21.3363 18.7503 21.5552 17.4631 21.5552C16.0449 21.5552 14.8152 21.2263 13.774 20.5672C12.7314 19.9106 11.9268 18.952 11.3574 17.6939C10.7879 16.4371 10.5032 14.9128 10.5032 13.1172C10.5032 11.3242 10.792 9.80499 11.3694 8.55971C11.9468 7.3157 12.7541 6.36607 13.7927 5.71079C14.8286 5.05551 16.0356 4.73043 17.4096 4.73043C18.1461 4.73043 18.8171 4.81746 19.4266 4.99536C20.0334 5.1707 20.5774 5.42411 21.0559 5.75558C21.5318 6.08706 21.9368 6.48765 22.2709 6.96119C22.6024 7.43473 22.8617 7.97738 23.0435 8.59043H28.8218C28.6387 7.31699 28.223 6.14977 27.5747 5.08879C27.5707 5.08239 27.5667 5.07471 27.5613 5.06831C31.3747 8.03369 33.8114 12.5618 33.8114 17.6312Z" fill="#775BE5"/>
</svg>
